<svg width="268" height="191" viewBox="0 0 268 191" fill="none" xmlns="http://www.w3.org/2000/svg">
<g clip-path="url(#clip0_241_115)">
<rect width="268" height="191" fill="white"/>
<path d="M193.427 138.698C180.898 141.706 167.818 141.56 155.359 138.273C142.9 134.986 131.451 128.661 122.036 119.863C112.622 111.065 105.536 100.07 101.414 87.8616C97.2912 75.6533 96.261 62.6133 98.415 49.9092C98.0874 50.2256 97.7415 50.5225 97.3792 50.7983C94.8125 52.7508 91.6042 53.475 85.1875 54.9233L79.3667 56.2433C56.8167 61.3492 45.5417 63.8975 42.8558 72.5233C40.1792 81.14 47.8608 90.1325 63.2333 108.108L67.2117 112.756C71.575 117.862 73.7658 120.419 74.7467 123.572C75.7275 126.735 75.3975 130.145 74.7375 136.956L74.1325 143.162C71.8133 167.151 70.6492 179.141 77.6708 184.467C84.6925 189.802 95.2525 184.943 116.354 175.217L121.827 172.706C127.822 169.937 130.819 168.563 134 168.563C137.181 168.563 140.178 169.937 146.182 172.706L151.637 175.217C172.747 184.934 183.307 189.793 190.32 184.476C197.351 179.141 196.187 167.151 193.867 143.162L193.427 138.698Z" fill="#446BCD"/>
<path opacity="0.5" d="M107.903 34.5732L104.896 39.9632C101.596 45.8849 99.9459 48.8457 97.3792 50.7982C97.7459 50.5232 98.0851 50.2299 98.4151 49.9091C96.2605 62.6141 97.2907 75.6553 101.413 87.8644C105.536 100.074 112.623 111.07 122.038 119.868C131.454 128.666 142.905 134.991 155.365 138.277C167.826 141.563 180.907 141.708 193.437 138.697L193.253 136.956C192.603 130.145 192.273 126.735 193.253 123.572C194.234 120.419 196.416 117.862 200.788 112.756L204.767 108.108C220.139 90.1416 227.821 81.1491 225.135 72.5232C222.458 63.8974 211.183 61.3399 188.633 56.2432L182.803 54.9232C176.396 53.4749 173.188 52.7507 170.612 50.7982C168.045 48.8457 166.395 45.8849 163.095 39.9632L160.098 34.5732C148.483 13.7466 142.681 3.33325 134 3.33325C125.319 3.33325 119.517 13.7466 107.903 34.5732Z" fill="#9FB9FA"/>
<path d="M173.417 91.0219C173.12 90.6018 172.727 90.2589 172.269 90.0221C171.812 89.7853 171.304 89.6615 170.789 89.6611H160.705L139.968 72.0415C137.443 69.5244 133.344 69.5212 130.819 72.0415L110.434 89.6611H102.135L96.938 71.7948C94.9 64.7595 90.0571 64 88.0709 64H74.2123C72.4363 64 71 65.4335 71 67.2024C71 68.9713 72.4378 70.4047 74.2122 70.4047H88.0675C88.5059 70.4047 89.8435 70.4047 90.7559 73.5474L108.634 139.048C109.022 140.43 110.285 141.385 111.726 141.385H155.395C156.751 141.385 157.96 140.538 158.418 139.266L173.81 93.9469C174.164 92.9649 174.017 91.8717 173.417 91.0219H173.417ZM135.394 76.6032L150.763 89.6628H120.02L135.394 76.6032ZM153.134 134.982H114.165L103.939 96.0675H166.221L153.134 134.982ZM146.763 147.875C142.296 147.875 138.676 151.484 138.676 155.938C138.676 160.391 142.296 164 146.763 164C151.231 164 154.851 160.391 154.851 155.938C154.851 151.484 151.231 147.875 146.763 147.875ZM117.649 147.875C113.181 147.875 109.561 151.484 109.561 155.938C109.561 160.391 113.181 164 117.649 164C122.116 164 125.736 160.391 125.736 155.938C125.736 151.484 122.116 147.875 117.649 147.875Z" fill="white"/>
</g>
<defs>
<clipPath id="clip0_241_115">
<rect width="268" height="191" fill="white"/>
</clipPath>
</defs>
</svg>
