<svg width="268" height="191" viewBox="0 0 268 191" fill="none" xmlns="http://www.w3.org/2000/svg">
<rect width="268" height="191" fill="white"/>
<path d="M222 97C222 148.915 179.915 191 128 191C76.0852 191 34 148.915 34 97C34 45.0852 153 153.5 128 3.00002C156 -10.5001 222 45.0852 222 97Z" fill="#446BCD"/>
<path d="M104.275 146.969C100.587 139.594 98.375 131.481 98.375 123C98.375 94.6063 121.606 71.375 150 71.375V78.75C125.663 78.75 105.75 98.6625 105.75 123C105.75 130.375 107.594 137.012 110.913 143.281L104.275 146.969ZM194.25 123C194.25 147.337 174.337 167.25 150 167.25C139.306 167.25 129.35 163.563 121.606 156.925L142.625 135.906L137.463 130.375L113.494 154.344C112.019 155.819 112.019 158.031 113.494 159.506C123.081 169.094 136.356 174.625 150 174.625C178.394 174.625 201.625 151.394 201.625 123H194.25Z" fill="white"/>
<path d="M157.375 156.188C157.006 156.188 156.269 156.187 155.9 155.819C154.794 155.45 153.688 154.344 153.688 152.869L151.106 134.431L158.481 133.325L159.956 145.494L168.069 139.225V119.312C168.069 118.206 168.438 117.469 169.175 116.731L180.975 104.931C184.294 101.613 186.506 96.8187 186.506 92.025V86.125H180.975C176.181 86.125 171.388 87.9688 168.069 91.6562L156.269 103.456C155.531 104.194 154.794 104.562 153.688 104.562H133.406L127.137 112.675L139.306 114.15L138.2 121.525L119.762 118.944C118.287 118.944 117.181 117.838 116.812 116.731C116.444 115.625 116.444 114.15 117.181 113.044L128.244 98.2938C129.35 97.5563 130.456 97.1875 131.562 97.1875H152.213L163.275 86.125C168.069 81.3313 174.706 78.75 181.344 78.75H186.875C190.931 78.75 194.25 82.0687 194.25 86.125V91.6562C194.25 98.6625 191.669 104.931 186.875 109.725L175.813 120.787V141.438C175.813 142.544 175.444 143.65 174.338 144.387L159.588 155.45C158.85 155.819 158.113 156.188 157.375 156.188Z" fill="white"/>
</svg>
