<svg width="268" height="191" viewBox="0 0 268 191" fill="none" xmlns="http://www.w3.org/2000/svg">
<rect width="268" height="191" fill="white"/>
<path d="M222 97C222 148.915 179.915 191 128 191C76.0852 191 34 148.915 34 97C34 45.0852 78 80 128 3.00002C156 -10.5001 222 45.0852 222 97Z" fill="#446BCD"/>
<path d="M134.5 103L80.415 81.395L83.75 161H69.25L72.73 78.2775L62 74L134.5 45L207 74L134.5 103ZM134.5 66.75C130.512 66.75 127.25 68.345 127.25 70.375C127.25 72.405 130.512 74 134.5 74C138.488 74 141.75 72.405 141.75 70.375C141.75 68.345 138.488 66.75 134.5 66.75ZM134.5 110.25L174.882 94.0825C180.03 100.898 183.583 109.09 184.743 118.007C182.568 117.717 180.32 117.5 178 117.5C159.513 117.5 143.345 127.432 134.5 142.222C130.01 134.688 123.641 128.448 116.016 124.115C108.391 119.781 99.7707 117.502 91 117.5C88.68 117.5 86.4325 117.717 84.2575 118.007C85.4175 109.09 88.97 100.898 94.1175 94.0825L134.5 110.25Z" fill="white"/>
</svg>
